<?xml version="1.0" encoding="UTF-8" standalone="no"?>
<svg width="1800" height="1200" xmlns="http://www.w3.org/2000/svg">
    <defs>
        <linearGradient id="headerGradient" x1="0%" y1="0%" x2="100%" y2="0%">
            <stop offset="0%" style="stop-color:#4CAF50;stop-opacity:1" />
            <stop offset="100%" style="stop-color:#45a049;stop-opacity:1" />
        </linearGradient>
        <linearGradient id="cellGradient" x1="0%" y1="0%" x2="100%" y2="0%">
            <stop offset="0%" style="stop-color:#ffffff;stop-opacity:1" />
            <stop offset="100%" style="stop-color:#f0f0f0;stop-opacity:1" />
        </linearGradient>
    </defs>
    
    <style>
        .header { fill: url(#headerGradient); }
        .cell { fill: url(#cellGradient); stroke: #ddd; stroke-width: 1; }
        .cell:hover { filter: brightness(0.95); }
        .text { font-family: Arial, sans-serif; font-size: 12px; fill: #333; }
        .header-text { font-family: Arial, sans-serif; font-size: 14px; fill: white; font-weight: bold; }
        .subtext { font-family: Arial, sans-serif; font-size: 10px; fill: #666; }
    </style>
    
    <rect width="100%" height="100%" fill="#f9f9f9"/>
    
    <text x="900" y="40" font-family="Arial, sans-serif" font-size="24" text-anchor="middle" font-weight="bold" fill="#333">META-ATT&amp;CK Framework Matrix</text>

    <!-- Header cells -->
    <g>
        <rect x="10" y="60" width="150" height="40" rx="5" ry="5" class="header"/>
        <text x="85" y="85" class="header-text" text-anchor="middle">1. 战略规划</text>
    </g>
    <g>
        <rect x="165" y="60" width="150" height="40" rx="5" ry="5" class="header"/>
        <text x="240" y="85" class="header-text" text-anchor="middle">2. 初始访问</text>
    </g>
    <g>
        <rect x="320" y="60" width="150" height="40" rx="5" ry="5" class="header"/>
        <text x="395" y="85" class="header-text" text-anchor="middle">3. 立足点建立</text>
    </g>
    <g>
        <rect x="475" y="60" width="150" height="40" rx="5" ry="5" class="header"/>
        <text x="550" y="85" class="header-text" text-anchor="middle">4. 权限提升</text>
    </g>
    <g>
        <rect x="630" y="60" width="150" height="40" rx="5" ry="5" class="header"/>
        <text x="705" y="85" class="header-text" text-anchor="middle">5. 内部侦察</text>
    </g>
    <g>
        <rect x="785" y="60" width="150" height="40" rx="5" ry="5" class="header"/>
        <text x="860" y="85" class="header-text" text-anchor="middle">6. 横向移动</text>
    </g>
    <g>
        <rect x="940" y="60" width="150" height="40" rx="5" ry="5" class="header"/>
        <text x="1015" y="85" class="header-text" text-anchor="middle">7. 数据获取与渗出</text>
    </g>
    <g>
        <rect x="1095" y="60" width="150" height="40" rx="5" ry="5" class="header"/>
        <text x="1170" y="85" class="header-text" text-anchor="middle">8. 影响与破坏</text>
    </g>
    <g>
        <rect x="1250" y="60" width="150" height="40" rx="5" ry="5" class="header"/>
        <text x="1325" y="85" class="header-text" text-anchor="middle">9. 长期驻留</text>
    </g>
    <g>
        <rect x="1405" y="60" width="150" height="40" rx="5" ry="5" class="header"/>
        <text x="1480" y="85" class="header-text" text-anchor="middle">10. 行动完成</text>
    </g>
    <g>
        <rect x="1560" y="60" width="150" height="40" rx="5" ry="5" class="header"/>
        <text x="1635" y="85" class="header-text" text-anchor="middle">11. 后行动评估</text>
    </g>

    <!-- Content cells -->
    <!-- Row 1 -->
    <g>
        <rect x="10" y="105" width="150" height="140" rx="5" ry="5" class="cell"/>
        <text x="15" y="125" class="text">1.1 目标选择</text>
        <text x="20" y="145" class="subtext">高价值目标识别</text>
        <text x="20" y="160" class="subtext">地缘政治考量</text>
        <text x="20" y="175" class="subtext">经济利益评估</text>
    </g>
    <g>
        <rect x="165" y="105" width="150" height="140" rx="5" ry="5" class="cell"/>
        <text x="170" y="125" class="text">2.1 社会工程攻击</text>
        <text x="175" y="145" class="subtext">定向鱼叉式网络钓鱼</text>
        <text x="175" y="160" class="subtext">水坑攻击</text>
        <text x="175" y="175" class="subtext">假冒可信实体</text>
    </g>
    <g>
        <rect x="320" y="105" width="150" height="140" rx="5" ry="5" class="cell"/>
        <text x="325" y="125" class="text">3.1 持久化机制</text>
        <text x="330" y="145" class="subtext">引导或登录自启动执行</text>
        <text x="330" y="160" class="subtext">创建或修改系统进程</text>
        <text x="330" y="175" class="subtext">注册表劫持</text>
    </g>
    <g>
        <rect x="475" y="105" width="150" height="140" rx="5" ry="5" class="cell"/>
        <text x="480" y="125" class="text">4.1 本地权限提升</text>
        <text x="485" y="145" class="subtext">内核漏洞利用</text>
        <text x="485" y="160" class="subtext">DLL劫持</text>
        <text x="485" y="175" class="subtext">计划任务滥用</text>
    </g>
    <g>
        <rect x="630" y="105" width="150" height="140" rx="5" ry="5" class="cell"/>
        <text x="635" y="125" class="text">5.1 网络发现</text>
        <text x="640" y="145" class="subtext">被动网络映射</text>
        <text x="640" y="160" class="subtext">活动目录枚举</text>
        <text x="640" y="175" class="subtext">服务发现</text>
    </g>
    <g>
        <rect x="785" y="105" width="150" height="140" rx="5" ry="5" class="cell"/>
        <text x="790" y="125" class="text">6.1 凭证利用</text>
        <text x="795" y="145" class="subtext">传递哈希</text>
        <text x="795" y="160" class="subtext">黄金票据和白银票据攻击</text>
        <text x="795" y="175" class="subtext">凭证注入</text>
    </g>
    <g>
        <rect x="940" y="105" width="150" height="140" rx="5" ry="5" class="cell"/>
        <text x="945" y="125" class="text">7.1 数据发现与收集</text>
        <text x="950" y="145" class="subtext">自动化敏感数据识别</text>
        <text x="950" y="160" class="subtext">数据库内容提取</text>
        <text x="950" y="175" class="subtext">文件系统扫描</text>
    </g>
    <g>
        <rect x="1095" y="105" width="150" height="140" rx="5" ry="5" class="cell"/>
        <text x="1100" y="125" class="text">8.1 数据操纵</text>
        <text x="1105" y="145" class="subtext">定向数据篡改</text>
        <text x="1105" y="160" class="subtext">数据库污染</text>
        <text x="1105" y="175" class="subtext">配置文件修改</text>
    </g>
    <g>
        <rect x="1250" y="105" width="150" height="140" rx="5" ry="5" class="cell"/>
        <text x="1255" y="125" class="text">9.1 隐蔽通信通道</text>
        <text x="1260" y="145" class="subtext">自定义C2协议</text>
        <text x="1260" y="160" class="subtext">域前置</text>
        <text x="1260" y="175" class="subtext">社交媒体C2</text>
    </g>
    <g>
        <rect x="1405" y="105" width="150" height="140" rx="5" ry="5" class="cell"/>
        <text x="1410" y="125" class="text">10.1 目标确认</text>
        <text x="1415" y="145" class="subtext">数据完整性验证</text>
        <text x="1415" y="160" class="subtext">持久访问确认</text>
        <text x="1415" y="175" class="subtext">影响评估</text>
    </g>
    <g>
        <rect x="1560" y="105" width="150" height="140" rx="5" ry="5" class="cell"/>
        <text x="1565" y="125" class="text">11.1 行动效果分析</text>
        <text x="1570" y="145" class="subtext">目标达成度评估</text>
        <text x="1570" y="160" class="subtext">技术有效性分析</text>
        <text x="1570" y="175" class="subtext">防御绕过成功率统计</text>
    </g>

    <!-- Row 2 -->
    <g>
        <rect x="10" y="250" width="150" height="140" rx="5" ry="5" class="cell"/>
        <text x="15" y="270" class="text">1.2 攻击资源准备</text>
        <text x="20" y="290" class="subtext">定制化恶意软件开发</text>
        <text x="20" y="305" class="subtext">零日漏洞获取和储备</text>
        <text x="20" y="320" class="subtext">多层代理基础设施搭建</text>
    </g>
    <g>
        <rect x="165" y="250" width="150" height="140" rx="5" ry="5" class="cell"/>
        <text x="170" y="270" class="text">2.2 技术漏洞利用</text>
        <text x="175" y="290" class="subtext">零日漏洞利用</text>
        <text x="175" y="305" class="subtext">已知漏洞利用</text>
        <text x="175" y="320" class="subtext">配置错误利用</text>
    </g>
    <g>
        <rect x="320" y="250" width="150" height="140" rx="5" ry="5" class="cell"/>
        <text x="325" y="270" class="text">3.2 后门植入</text>
        <text x="330" y="290" class="subtext">固件级后门</text>
        <text x="330" y="305" class="subtext">内存驻留恶意代码</text>
        <text x="330" y="320" class="subtext">签名软件劫持</text>
    </g>
    <g>
        <rect x="475" y="250" width="150" height="140" rx="5" ry="5" class="cell"/>
        <text x="480" y="270" class="text">4.2 域权限提升</text>
        <text x="485" y="290" class="subtext">Kerberoasting</text>
        <text x="485" y="305" class="subtext">DCSync攻击</text>
        <text x="485" y="320" class="subtext">域信任关系利用</text>
    </g>
    <g>
        <rect x="630" y="250" width="150" height="140" rx="5" ry="5" class="cell"/>
        <text x="635" y="270" class="text">5.2 资产识别</text>
        <text x="640" y="290" class="subtext">关键数据存储位置识别</text>
        <text x="640" y="305" class="subtext">业务关键系统定位</text>
        <text x="640" y="320" class="subtext">高价值目标识别</text>
    </g>
    <g>
        <rect x="785" y="250" width="150" height="140" rx="5" ry="5" class="cell"/>
        <text x="790" y="270" class="text">6.2 远程服务利用</text>
        <text x="795" y="290" class="subtext">利用未记录的远程调用过程</text>
        <text x="795" y="305" class="subtext">利用可信管理协议</text>
        <text x="795" y="320" class="subtext">RDP劫持</text>
    </g>
    <g>
        <rect x="940" y="250" width="150" height="140" rx="5" ry="5" class="cell"/>
        <text x="945" y="270" class="text">7.2 数据分类与优先级排序</text>
        <text x="950" y="290" class="subtext">基于关键字的数据分类</text>
        <text x="950" y="305" class="subtext">数据敏感度评估</text>
        <text x="950" y="320" class="subtext">数据价值分析</text>
    </g>
    <g>
        <rect x="1095" y="250" width="150" height="140" rx="5" ry="5" class="cell"/>
        <text x="1100" y="270" class="text">8.2 系统破坏</text>
        <text x="1105" y="290" class="subtext">选择性数据擦除</text>
        <text x="1105" y="305" class="subtext">系统关键文件删除</text>
        <text x="1105" y="320" class="subtext">引导记录覆盖</text>
    </g>
    <g>
        <rect x="1250" y="250" width="150" height="140" rx="5" ry="5" class="cell"/>
        <text x="1255" y="270" class="text">9.2 自我更新机制</text>
        <text x="1260" y="290" class="subtext">模块化恶意软件架构</text>
        <text x="1260" y="305" class="subtext">动态代码注入</text>
        <text x="1260" y="320" class="subtext">远程配置更新</text>
    </g>
    <g>
        <rect x="1405" y="250" width="150" height="140" rx="5" ry="5" class="cell"/>
        <text x="1410" y="270" class="text">10.2 痕迹清理</text>
        <text x="1415" y="290" class="subtext">日志清除和伪造</text>
        <text x="1415" y="305" class="subtext">时间戳篡改</text>
        <text x="1415" y="320" class="subtext">内存痕迹清理</text>
    </g>
    <g>
        <rect x="1560" y="250" width="150" height="140" rx="5" ry="5" class="cell"/>
        <text x="1565" y="270" class="text">11.2 情报反馈</text>
        <text x="1570" y="290" class="subtext">目标防御能力评估</text>
        <text x="1570" y="305" class="subtext">新防御技术识别</text>
        <text x="1570" y="320" class="subtext">战术调整建议</text>
    </g>

    <!-- Row 3 -->
    <g>
        <rect x="10" y="395" width="150" height="140" rx="5" ry="5" class="cell"/>
        <text x="15" y="415" class="text">1.3 情报收集</text>
        <text x="20" y="435" class="subtext">深度开源情报收集</text>
        <text x="20" y="450" class="subtext">供应链分析</text>
        <text x="20" y="465" class="subtext">社交工程信息收集</text>
    </g>
    <g>
        <rect x="165" y="395" width="150" height="140" rx="5" ry="5" class="cell"/>
        <text x="170" y="415" class="text">2.3 供应链攻击</text>
        <text x="175" y="435" class="subtext">软件更新渠道劫持</text>
        <text x="175" y="450" class="subtext">第三方服务提供商渗透</text>
        <text x="175" y="465" class="subtext">开源组件污染</text>
    </g>
    <g>
        <rect x="320" y="395" width="150" height="140" rx="5" ry="5" class="cell"/>
        <text x="325" y="415" class="text">3.3 防御规避</text>
        <text x="330" y="435" class="subtext">反虚拟机和沙箱技术</text>
        <text x="330" y="450" class="subtext">混淆和加密</text>
        <text x="330" y="465" class="subtext">签名伪造</text>
    </g>
    <g>
        <rect x="475" y="395" width="150" height="140" rx="5" ry="5" class="cell"/>
        <text x="480" y="415" class="text">4.3 云环境权限提升</text>
        <text x="485" y="435" class="subtext">角色假冒</text>
        <text x="485" y="450" class="subtext">配置错误利用</text>
        <text x="485" y="465" class="subtext">托管身份滥用</text>
    </g>
    <g>
        <rect x="630" y="395" width="150" height="140" rx="5" ry="5" class="cell"/>
        <text x="635" y="415" class="text">5.3 漏洞扫描</text>
        <text x="640" y="435" class="subtext">内部系统漏洞扫描</text>
        <text x="640" y="450" class="subtext">错误配置识别</text>
        <text x="640" y="465" class="subtext">未打补丁系统发现</text>
    </g>
    <g>
        <rect x="785" y="395" width="150" height="140" rx="5" ry="5" class="cell"/>
        <text x="790" y="415" class="text">6.3 内部网络操纵</text>
        <text x="795" y="435" class="subtext">VLAN跳跃</text>
        <text x="795" y="450" class="subtext">内部路由操纵</text>
        <text x="795" y="465" class="subtext">ARP欺骗</text>
    </g>
    <g>
        <rect x="940" y="395" width="150" height="140" rx="5" ry="5" class="cell"/>
        <text x="945" y="415" class="text">7.3 隐蔽数据渗出</text>
        <text x="950" y="435" class="subtext">DNS隧道</text>
        <text x="950" y="450" class="subtext">加密通道数据传输</text>
        <text x="950" y="465" class="subtext">隐写术</text>
    </g>
    <g>
        <rect x="1095" y="395" width="150" height="140" rx="5" ry="5" class="cell"/>
        <text x="1100" y="415" class="text">8.3 勒索攻击</text>
        <text x="1105" y="435" class="subtext">数据加密</text>
        <text x="1105" y="450" class="subtext">勒索消息投放</text>
        <text x="1105" y="465" class="subtext">支付系统建立</text>
    </g>
    <g>
        <rect x="1250" y="395" width="150" height="140" rx="5" ry="5" class="cell"/>
        <text x="1255" y="415" class="text">9.3 备用接入点</text>
        <text x="1260" y="435" class="subtext">多重后门部署</text>
        <text x="1260" y="450" class="subtext">休眠代理</text>
        <text x="1260" y="465" class="subtext">硬件植入</text>
    </g>
    <g>
        <rect x="1405" y="395" width="150" height="140" rx="5" ry="5" class="cell"/>
        <text x="1410" y="415" class="text">10.3 撤离策略</text>
        <text x="1415" y="435" class="subtext">分阶段撤离</text>
        <text x="1415" y="450" class="subtext">假撤离诱饵</text>
        <text x="1415" y="465" class="subtext">后门维护的自动化</text>
    </g>
    <g>
        <rect x="1560" y="395" width="150" height="140" rx="5" ry="5" class="cell"/>
        <text x="1565" y="415" class="text">11.3 能力提升</text>
        <text x="1570" y="435" class="subtext">工具和恶意软件改进</text>
        <text x="1570" y="450" class="subtext">新攻击向量研究</text>
        <text x="1570" y="465" class="subtext">团队技能培训和提升</text>
    </g>
</svg>
