<?xml version="1.0" encoding="UTF-8" standalone="no"?>
<svg width="1600" height="1000" xmlns="http://www.w3.org/2000/svg">
    <style>
        .header { fill: #4CAF50; font-weight: bold; }
        .cell { fill: white; stroke: #ddd; }
        .cell:hover { fill: #f9f9f9; }
        .text { font-family: Arial, sans-serif; font-size: 12px; }
        .subtext { font-family: Arial, sans-serif; font-size: 10px; fill: #666; }
    </style>
    
    <rect width="100%" height="100%" fill="#f0f0f0"/>
    
    <text x="800" y="30" font-family="Arial, sans-serif" font-size="24" text-anchor="middle" font-weight="bold">META-ATT-CK Framework Matrix</text>

    <!-- Header cells -->
    <g>
        <rect x="10" y="50" width="140" height="40" class="header"/>
        <text x="80" y="75" class="text" fill="white" text-anchor="middle">1. 战略规划</text>
    </g>
    <g>
        <rect x="155" y="50" width="140" height="40" class="header"/>
        <text x="225" y="75" class="text" fill="white" text-anchor="middle">2. 初始访问</text>
    </g>
    <g>
        <rect x="300" y="50" width="140" height="40" class="header"/>
        <text x="370" y="75" class="text" fill="white" text-anchor="middle">3. 立足点建立</text>
    </g>
    <g>
        <rect x="445" y="50" width="140" height="40" class="header"/>
        <text x="515" y="75" class="text" fill="white" text-anchor="middle">4. 权限提升</text>
    </g>
    <g>
        <rect x="590" y="50" width="140" height="40" class="header"/>
        <text x="660" y="75" class="text" fill="white" text-anchor="middle">5. 内部侦察</text>
    </g>
    <g>
        <rect x="735" y="50" width="140" height="40" class="header"/>
        <text x="805" y="75" class="text" fill="white" text-anchor="middle">6. 横向移动</text>
    </g>
    <g>
        <rect x="880" y="50" width="140" height="40" class="header"/>
        <text x="950" y="75" class="text" fill="white" text-anchor="middle">7. 数据获取与渗出</text>
    </g>
    <g>
        <rect x="1025" y="50" width="140" height="40" class="header"/>
        <text x="1095" y="75" class="text" fill="white" text-anchor="middle">8. 影响与破坏</text>
    </g>
    <g>
        <rect x="1170" y="50" width="140" height="40" class="header"/>
        <text x="1240" y="75" class="text" fill="white" text-anchor="middle">9. 长期驻留</text>
    </g>
    <g>
        <rect x="1315" y="50" width="140" height="40" class="header"/>
        <text x="1385" y="75" class="text" fill="white" text-anchor="middle">10. 行动完成</text>
    </g>
    <g>
        <rect x="1460" y="50" width="140" height="40" class="header"/>
        <text x="1530" y="75" class="text" fill="white" text-anchor="middle">11. 后行动评估</text>
    </g>

    <!-- Content cells -->
    <!-- Row 1 -->
    <g>
        <rect x="10" y="95" width="140" height="140" class="cell"/>
        <text x="15" y="115" class="text">1.1 目标选择</text>
        <text x="20" y="135" class="subtext">高价值目标识别</text>
        <text x="20" y="150" class="subtext">地缘政治考量</text>
        <text x="20" y="165" class="subtext">经济利益评估</text>
    </g>
    <g>
        <rect x="155" y="95" width="140" height="140" class="cell"/>
        <text x="160" y="115" class="text">2.1 社会工程攻击</text>
        <text x="165" y="135" class="subtext">定向鱼叉式网络钓鱼</text>
        <text x="165" y="150" class="subtext">水坑攻击</text>
        <text x="165" y="165" class="subtext">假冒可信实体</text>
    </g>
    <g>
        <rect x="300" y="95" width="140" height="140" class="cell"/>
        <text x="305" y="115" class="text">3.1 持久化机制</text>
        <text x="310" y="135" class="subtext">引导或登录自启动执行</text>
        <text x="310" y="150" class="subtext">创建或修改系统进程</text>
        <text x="310" y="165" class="subtext">注册表劫持</text>
    </g>
    <g>
        <rect x="445" y="95" width="140" height="140" class="cell"/>
        <text x="450" y="115" class="text">4.1 本地权限提升</text>
        <text x="455" y="135" class="subtext">内核漏洞利用</text>
        <text x="455" y="150" class="subtext">DLL劫持</text>
        <text x="455" y="165" class="subtext">计划任务滥用</text>
    </g>
    <g>
        <rect x="590" y="95" width="140" height="140" class="cell"/>
        <text x="595" y="115" class="text">5.1 网络发现</text>
        <text x="600" y="135" class="subtext">被动网络映射</text>
        <text x="600" y="150" class="subtext">活动目录枚举</text>
        <text x="600" y="165" class="subtext">服务发现</text>
    </g>
    <g>
        <rect x="735" y="95" width="140" height="140" class="cell"/>
        <text x="740" y="115" class="text">6.1 凭证利用</text>
        <text x="745" y="135" class="subtext">传递哈希</text>
        <text x="745" y="150" class="subtext">黄金票据和白银票据攻击</text>
        <text x="745" y="165" class="subtext">凭证注入</text>
    </g>
    <g>
        <rect x="880" y="95" width="140" height="140" class="cell"/>
        <text x="885" y="115" class="text">7.1 数据发现与收集</text>
        <text x="890" y="135" class="subtext">自动化敏感数据识别</text>
        <text x="890" y="150" class="subtext">数据库内容提取</text>
        <text x="890" y="165" class="subtext">文件系统扫描</text>
    </g>
    <g>
        <rect x="1025" y="95" width="140" height="140" class="cell"/>
        <text x="1030" y="115" class="text">8.1 数据操纵</text>
        <text x="1035" y="135" class="subtext">定向数据篡改</text>
        <text x="1035" y="150" class="subtext">数据库污染</text>
        <text x="1035" y="165" class="subtext">配置文件修改</text>
    </g>
    <g>
        <rect x="1170" y="95" width="140" height="140" class="cell"/>
        <text x="1175" y="115" class="text">9.1 隐蔽通信通道</text>
        <text x="1180" y="135" class="subtext">自定义C2协议</text>
        <text x="1180" y="150" class="subtext">域前置</text>
        <text x="1180" y="165" class="subtext">社交媒体C2</text>
    </g>
    <g>
        <rect x="1315" y="95" width="140" height="140" class="cell"/>
        <text x="1320" y="115" class="text">10.1 目标确认</text>
        <text x="1325" y="135" class="subtext">数据完整性验证</text>
        <text x="1325" y="150" class="subtext">持久访问确认</text>
        <text x="1325" y="165" class="subtext">影响评估</text>
    </g>
    <g>
        <rect x="1460" y="95" width="140" height="140" class="cell"/>
        <text x="1465" y="115" class="text">11.1 行动效果分析</text>
        <text x="1470" y="135" class="subtext">目标达成度评估</text>
        <text x="1470" y="150" class="subtext">技术有效性分析</text>
        <text x="1470" y="165" class="subtext">防御绕过成功率统计</text>
    </g>

    <!-- Row 2 -->
    <g>
        <rect x="10" y="240" width="140" height="140" class="cell"/>
        <text x="15" y="260" class="text">1.2 攻击资源准备</text>
        <text x="20" y="280" class="subtext">定制化恶意软件开发</text>
        <text x="20" y="295" class="subtext">零日漏洞获取和储备</text>
        <text x="20" y="310" class="subtext">多层代理基础设施搭建</text>
    </g>
    <g>
        <rect x="155" y="240" width="140" height="140" class="cell"/>
        <text x="160" y="260" class="text">2.2 技术漏洞利用</text>
        <text x="165" y="280" class="subtext">零日漏洞利用</text>
        <text x="165" y="295" class="subtext">已知漏洞利用</text>
        <text x="165" y="310" class="subtext">配置错误利用</text>
    </g>
    <g>
        <rect x="300" y="240" width="140" height="140" class="cell"/>
        <text x="305" y="260" class="text">3.2 后门植入</text>
        <text x="310" y="280" class="subtext">固件级后门</text>
        <text x="310" y="295" class="subtext">内存驻留恶意代码</text>
        <text x="310" y="310" class="subtext">签名软件劫持</text>
    </g>
    <g>
        <rect x="445" y="240" width="140" height="140" class="cell"/>
        <text x="450" y="260" class="text">4.2 域权限提升</text>
        <text x="455" y="280" class="subtext">Kerberoasting</text>
        <text x="455" y="295" class="subtext">DCSync攻击</text>
        <text x="455" y="310" class="subtext">域信任关系利用</text>
    </g>
    <g>
        <rect x="590" y="240" width="140" height="140" class="cell"/>
        <text x="595" y="260" class="text">5.2 资产识别</text>
        <text x="600" y="280" class="subtext">关键数据存储位置识别</text>
        <text x="600" y="295" class="subtext">业务关键系统定位</text>
        <text x="600" y="310" class="subtext">高价值目标识别</text>
    </g>
    <g>
        <rect x="735" y="240" width="140" height="140" class="cell"/>
        <text x="740" y="260" class="text">6.2 远程服务利用</text>
        <text x="745" y="280" class="subtext">利用未记录的远程调用过程</text>
        <text x="745" y="295" class="subtext">利用可信管理协议</text>
        <text x="745" y="310" class="subtext">RDP劫持</text>
    </g>
    <g>
        <rect x="880" y="240" width="140" height="140" class="cell"/>
        <text x="885" y="260" class="text">7.2 数据分类与优先级排序</text>
        <text x="890" y="280" class="subtext">基于关键字的数据分类</text>
        <text x="890" y="295" class="subtext">数据敏感度评估</text>
        <text x="890" y="310" class="subtext">数据价值分析</text>
    </g>
    <g>
        <rect x="1025" y="240" width="140" height="140" class="cell"/>
        <text x="1030" y="260" class="text">8.2 系统破坏</text>
        <text x="1035" y="280" class="subtext">选择性数据擦除</text>
        <text x="1035" y="295" class="subtext">系统关键文件删除</text>
        <text x="1035" y="310" class="subtext">引导记录覆盖</text>
    </g>
    <g>
        <rect x="1170" y="240" width="140" height="140" class="cell"/>
        <text x="1175" y="260" class="text">9.2 自我更新机制</text>
        <text x="1180" y="280" class="subtext">模块化恶意软件架构</text>
        <text x="1180" y="295" class="subtext">动态代码注入</text>
        <text x="1180" y="310" class="subtext">远程配置更新</text>
    </g>
    <g>
        <rect x="1315" y="240" width="140" height="140" class="cell"/>
        <text x="1320" y="260" class="text">10.2 痕迹清理</text>
        <text x="1325" y="280" class="subtext">日志清除和伪造</text>
        <text x="1325" y="295" class="subtext">时间戳篡改</text>
        <text x="1325" y="310" class="subtext">内存痕迹清理</text>
    </g>
    <g>
        <rect x="1460" y="240" width="140" height="140" class="cell"/>
        <text x="1465" y="260" class="text">11.2 情报反馈</text>
        <text x="1470" y="280" class="subtext">目标防御能力评估</text>
        <text x="1470" y="295" class="subtext">新防御技术识别</text>
        <text x="1470" y="310" class="subtext">战术调整建议</text>
    </g>

    <!-- Row 3 -->
    <g>
        <rect x="10" y="385" width="140" height="140" class="cell"/>
        <text x="15" y="405" class="text">1.3 情报收集</text>
        <text x="20" y="425" class="subtext">深度开源情报收集</text>
        <text x="20" y="440" class="subtext">供应链分析</text>
        <text x="20" y="455" class="subtext">社交工程信息收集</text>
    </g>
    <g>
        <rect x="155" y="385" width="140" height="140" class="cell"/>
        <text x="160" y="405" class="text">2.3 供应链攻击</text>
        <text x="165" y="425" class="subtext">软件更新渠道劫持</text>
        <text x="165" y="440" class="subtext">第三方服务提供商渗透</text>
        <text x="165" y="455" class="subtext">开源组件污染</text>
    </g>
    <g>
        <rect x="300" y="385" width="140" height="140" class="cell"/>
        <text x="305" y="405" class="text">3.3 防御规避</text>
        <text x="310" y="425" class="subtext">反虚拟机和沙箱技术</text>
        <text x="310" y="440" class="subtext">混淆和加密</text>
        <text x="310" y="455" class="subtext">签名伪造</text>
    </g>
    <g>
        <rect x="445" y="385" width="140" height="140" class="cell"/>
        <text x="450" y="405" class="text">4.3 云环境权限提升</text>
        <text x="455" y="425" class="subtext">角色假冒</text>
        <text x="455" y="440" class="subtext">配置错误利用</text>
        <text x="455" y="455" class="subtext">托管身份滥用</text>
    </g>
    <g>
        <rect x="590" y="385" width="140" height="140" class="cell"/>
        <text x="595" y="405" class="text">5.3 漏洞扫描</text>
        <text x="600" y="425" class="subtext">内部系统漏洞扫描</text>
        <text x="600" y="440" class="subtext">错误配置识别</text>
        <text x="600" y="455" class="subtext">未打补丁系统发现</text>
    </g>
    <g>
        <rect x="735" y="385" width="140" height="140" class="cell"/>
        <text x="740" y="405" class="text">6.3 内部网络操纵</text>
        <text x="745" y="425" class="subtext">VLAN跳跃</text>
        <text x="745" y="440" class="subtext">内部路由操纵</text>
        <text x="745" y="455" class="subtext">ARP欺骗</text>
    </g>
    <g>
        <rect x="880" y="385" width="140" height="140" class="cell"/>
        <text x="885" y="405" class="text">7.3 隐蔽数据渗出</text>
        <text x="890" y="425" class="subtext">DNS隧道</text>
        <text x="890" y="440" class="subtext">加密通道数据传输</text>
        <text x="890" y="455" class="subtext">隐写术</text>
    </g>
    <g>
        <rect x="1025" y="385" width="140" height="140" class="cell"/>
        <text x="1030" y="405" class="text">8.3 勒索攻击</text>
        <text x="1035" y="425" class="subtext">数据加密</text>
        <text x="1035" y="440" class="subtext">勒索消息投放</text>
        <text x="1035" y="455" class="subtext">支付系统建立</text>
    </g>
    <g>
        <rect x="1170" y="385" width="140" height="140" class="cell"/>
        <text x="1175" y="405" class="text">9.3 备用接入点</text>
        <text x="1180" y="425" class="subtext">多重后门部署</text>
        <text x="1180" y="440" class="subtext">休眠代理</text>
        <text x="1180" y="455" class="subtext">硬件植入</text>
    </g>
    <g>
        <rect x="1315" y="385" width="140" height="140" class="cell"/>
        <text x="1320" y="405" class="text">10.3 撤离策略</text>
        <text x="1325" y="425" class="subtext">分阶段撤离</text>
        <text x="1325" y="440" class="subtext">假撤离诱饵</text>
        <text x="1325" y="455" class="subtext">后门维护的自动化</text>
    </g>
    <g>
        <rect x="1460" y="385" width="140" height="140" class="cell"/>
        <text x="1465" y="405" class="text">11.3 能力提升</text>
        <text x="1470" y="425" class="subtext">工具和恶意软件改进</text>
        <text x="1470" y="440" class="subtext">新攻击向量研究</text>
        <text x="1470" y="455" class="subtext">团队技能培训和提升</text>
    </g>
</svg>
